<svg width="140" height="65" viewBox="0 0 140 65" fill="none" xmlns="http://www.w3.org/2000/svg">
<path d="M3.54492 14.2344V11.2344H-0.809182L0.741672 15.3029L3.54492 14.2344ZM11.2012 14.2344L14.0103 13.1813L13.2804 11.2344H11.2012V14.2344ZM25.5908 52.6182L22.7817 53.6713L25.5942 61.1733L28.4007 53.6691L25.5908 52.6182ZM39.9463 14.2344V11.2344H37.8653L37.1364 13.1835L39.9463 14.2344ZM47.6025 14.2344L50.4051 15.3046L51.9594 11.2344H47.6025V14.2344ZM28.5986 64V67H30.6643L31.4012 65.0702L28.5986 64ZM22.5146 64L19.7114 65.0686L20.4476 67H22.5146V64ZM0.0585938 14.2344V11.2344H-2.94141V14.2344H0.0585938ZM7.33887 14.2344L10.3367 14.1203L10.2268 11.2344H7.33887V14.2344ZM8.60352 47.457H11.6035V47.4L11.6013 47.3429L8.60352 47.457ZM8.60352 64V67H11.6035V64H8.60352ZM0.0585938 64H-2.94141V67H0.0585938V64ZM43.8086 14.2344V11.2344H40.9206L40.8108 14.1203L43.8086 14.2344ZM51.123 14.2344H54.123V11.2344H51.123V14.2344ZM51.123 64V67H54.123V64H51.123ZM42.5439 64H39.5439V67H42.5439V64ZM42.5439 47.457L39.5461 47.3429L39.5439 47.4V47.457H42.5439ZM3.54492 17.2344H11.2012V11.2344H3.54492V17.2344ZM8.39208 15.2875L22.7817 53.6713L28.3999 51.5651L14.0103 13.1813L8.39208 15.2875ZM28.4007 53.6691L42.7562 15.2853L37.1364 13.1835L22.7809 51.5673L28.4007 53.6691ZM39.9463 17.2344H47.6025V11.2344H39.9463V17.2344ZM44.7999 13.1641L25.796 62.9298L31.4012 65.0702L50.4051 15.3046L44.7999 13.1641ZM28.5986 61H22.5146V67H28.5986V61ZM25.3179 62.9315L6.34817 13.1658L0.741672 15.3029L19.7114 65.0686L25.3179 62.9315ZM0.0585938 17.2344H7.33887V11.2344H0.0585938V17.2344ZM4.34104 14.3485L5.60569 47.5711L11.6013 47.3429L10.3367 14.1203L4.34104 14.3485ZM5.60352 47.457V64H11.6035V47.457H5.60352ZM8.60352 61H0.0585938V67H8.60352V61ZM3.05859 64V14.2344H-2.94141V64H3.05859ZM43.8086 17.2344H51.123V11.2344H43.8086V17.2344ZM48.123 14.2344V64H54.123V14.2344H48.123ZM51.123 61H42.5439V67H51.123V61ZM45.5439 64V47.457H39.5439V64H45.5439ZM45.5418 47.5711L46.8064 14.3485L40.8108 14.1203L39.5461 47.3429L45.5418 47.5711ZM99.7949 10.0303V7.03027H96.7949V10.0303H99.7949ZM105.981 10.0303H108.981V7.03027H105.981V10.0303ZM104.58 17.8916L101.826 16.7028L101.82 16.7151L101.815 16.7274L104.58 17.8916ZM100.342 22.8477L101.867 25.4311L101.876 25.4255L100.342 22.8477ZM93.1299 24.5225H90.1299V27.5225H93.1299V24.5225ZM93.1299 19.5664V16.5664H90.1299V19.5664H93.1299ZM97.1289 18.4385L98.9824 20.7974L98.9896 20.7917L97.1289 18.4385ZM99.1797 15.1572L96.2951 14.3331L96.2907 14.3485L96.2865 14.3639L99.1797 15.1572ZM88.4814 63.043L89.6722 65.7965L89.6826 65.792L89.693 65.7875L88.4814 63.043ZM73.2715 63.624L72.2954 66.4608L72.3091 66.4655L72.3228 66.4701L73.2715 63.624ZM67.5293 60.5137L65.6552 62.8563L65.6648 62.8639L65.6744 62.8715L67.5293 60.5137ZM63.1201 55.5234L60.5581 57.0842L60.5686 57.1016L60.5794 57.1187L63.1201 55.5234ZM60.3174 48.79L57.4085 49.5238L57.4124 49.5393L57.4165 49.5548L60.3174 48.79ZM60.8643 27.667L63.7059 28.6288L63.7081 28.6222L60.8643 27.667ZM65.1025 20.0449L62.8403 18.0746L62.8387 18.0764L65.1025 20.0449ZM71.665 15.2256L72.8558 17.9792L72.8662 17.9747L72.8766 17.9701L71.665 15.2256ZM86.875 14.6445L85.8989 17.4813L85.9171 17.4876L85.9354 17.4936L86.875 14.6445ZM92.6172 17.7549L94.5066 15.4246L92.6172 17.7549ZM99.7266 29.4785L96.8177 30.2123L96.8193 30.2186L99.7266 29.4785ZM91.5576 31.666L88.609 32.2189L88.6103 32.2256L91.5576 31.666ZM90.0195 26.8809L87.3101 28.1689L87.3229 28.1958L87.3363 28.2225L90.0195 26.8809ZM87.5586 23.3945L89.6288 21.2233L87.5586 23.3945ZM84.1748 21.2754L83.1047 24.078L83.1131 24.0812L83.1214 24.0844L84.1748 21.2754ZM74.9805 21.6855L76.3055 24.3771L76.3221 24.3689L76.3385 24.3605L74.9805 21.6855ZM71.1865 24.9668L73.6094 26.7359L73.616 26.7268L73.6226 26.7177L71.1865 24.9668ZM68.7939 30.333L71.6988 31.0826L71.7007 31.0752L68.7939 30.333ZM68.4863 46.5684L65.5377 47.1212L65.5417 47.1426L65.546 47.1639L68.4863 46.5684ZM72.5537 54.874L70.4575 57.0202L70.4827 57.0448L70.5085 57.0688L72.5537 54.874ZM75.9375 56.9932L74.8674 59.7958L74.8758 59.799L74.8841 59.8022L75.9375 56.9932ZM85.166 56.6172L86.4911 59.3087L86.4994 59.3046L86.5077 59.3005L85.166 56.6172ZM88.96 53.3018L91.414 55.0273L91.4203 55.0184L91.4265 55.0094L88.96 53.3018ZM91.2842 47.8672L94.1982 48.5802L91.2842 47.8672ZM76.2109 11.2266L73.6931 9.59542L70.6929 14.2266H76.2109V11.2266ZM82.876 0.938477V-2.06152H81.245L80.3582 -0.692664L82.876 0.938477ZM92.1729 0.938477L94.3987 2.94986L98.9272 -2.06152H92.1729V0.938477ZM82.876 11.2266V14.2266H84.2084L85.1018 13.2379L82.876 11.2266ZM99.7949 13.0303H105.981V7.03027H99.7949V13.0303ZM102.981 10.0303C102.981 12.8165 102.557 15.0091 101.826 16.7028L107.335 19.0804C108.472 16.4446 108.981 13.3964 108.981 10.0303H102.981ZM101.815 16.7274C101.138 18.3359 100.14 19.4767 98.8073 20.2698L101.876 25.4255C104.372 23.94 106.199 21.7768 107.345 19.0558L101.815 16.7274ZM98.8167 20.2643C97.515 21.0327 95.6808 21.5225 93.1299 21.5225V27.5225C96.4123 27.5225 99.386 26.8957 101.867 25.4311L98.8167 20.2643ZM96.1299 24.5225V19.5664H90.1299V24.5225H96.1299ZM93.1299 22.5664C95.2448 22.5664 97.3198 22.1037 98.9824 20.7974L95.2754 16.0795C95.0239 16.2772 94.433 16.5664 93.1299 16.5664V22.5664ZM98.9896 20.7917C100.554 19.5549 101.547 17.8699 102.073 15.9505L96.2865 14.3639C96.038 15.2701 95.6637 15.7725 95.2682 16.0852L98.9896 20.7917ZM102.064 15.9814C102.571 14.2066 102.795 12.2062 102.795 10.0303H96.7949C96.7949 11.8192 96.6084 13.2367 96.2951 14.3331L102.064 15.9814ZM97.6836 37.75V40.4844H103.684V37.75H97.6836ZM97.6836 40.4844C97.6836 43.9869 97.2269 47.0355 96.3635 49.6659L102.064 51.5372C103.16 48.1975 103.684 44.5014 103.684 40.4844H97.6836ZM96.3635 49.6659C95.4921 52.3206 94.2743 54.4975 92.7459 56.2551L97.2736 60.1922C99.3911 57.757 100.976 54.8526 102.064 51.5372L96.3635 49.6659ZM92.7459 56.2551C91.211 58.0202 89.3937 59.361 87.2699 60.2985L89.693 65.7875C92.6278 64.4919 95.1627 62.6197 97.2736 60.1922L92.7459 56.2551ZM87.2907 60.2894C85.1788 61.2027 82.7876 61.6836 80.0732 61.6836V67.6836C83.5113 67.6836 86.7255 67.0708 89.6722 65.7965L87.2907 60.2894ZM80.0732 61.6836C77.9541 61.6836 76.0095 61.3744 74.2202 60.778L72.3228 66.4701C74.7717 67.2864 77.3616 67.6836 80.0732 67.6836V61.6836ZM74.2476 60.7873C72.4362 60.164 70.821 59.2861 69.3841 58.1558L65.6744 62.8715C67.6555 64.43 69.8685 65.6257 72.2954 66.4608L74.2476 60.7873ZM69.4034 58.1711C67.9716 57.0257 66.7228 55.6195 65.6608 53.9281L60.5794 57.1187C61.9784 59.3466 63.669 61.2673 65.6552 62.8563L69.4034 58.1711ZM65.6821 53.9627C64.6417 52.2548 63.8137 50.2837 63.2183 48.0253L57.4165 49.5548C58.1427 52.3094 59.1832 54.8273 60.5581 57.0842L65.6821 53.9627ZM63.2263 48.0563C62.6572 45.8001 62.3604 43.2816 62.3604 40.4844H56.3604C56.3604 43.7028 56.7016 46.7213 57.4085 49.5238L63.2263 48.0563ZM62.3604 40.4844V37.75H56.3604V40.4844H62.3604ZM62.3604 37.75C62.3604 34.2532 62.8269 31.2258 63.7059 28.6288L58.0226 26.7052C56.8964 30.0326 56.3604 33.7272 56.3604 37.75H62.3604ZM63.7081 28.6222C64.6022 25.9602 65.8335 23.7763 67.3664 22.0135L62.8387 18.0764C60.7258 20.5063 59.1315 23.4037 58.0204 26.7118L63.7081 28.6222ZM67.3648 22.0153C68.9223 20.227 70.746 18.8915 72.8558 17.9792L70.4743 12.472C67.5255 13.7472 64.9742 15.6245 62.8403 18.0746L67.3648 22.0153ZM72.8766 17.9701C74.9888 17.0376 77.3511 16.5508 80.0049 16.5508V10.5508C76.5975 10.5508 73.3998 11.1805 70.4535 12.4811L72.8766 17.9701ZM80.0049 16.5508C82.1661 16.5508 84.1231 16.8703 85.8989 17.4813L87.8511 11.8078C85.3886 10.9604 82.7655 10.5508 80.0049 10.5508V16.5508ZM85.9354 17.4936C87.7456 18.0906 89.3351 18.9559 90.7278 20.0851L94.5066 15.4246C92.5269 13.8195 90.2883 12.6113 87.8146 11.7955L85.9354 17.4936ZM90.7278 20.0851C92.1359 21.2269 93.3629 22.6297 94.4041 24.3191L99.512 21.1712C98.1377 18.9413 96.4708 17.0172 94.5066 15.4246L90.7278 20.0851ZM94.4041 24.3191C95.4315 25.9863 96.2447 27.9406 96.8177 30.2123L102.635 28.7447C101.932 25.9578 100.9 23.4232 99.512 21.1712L94.4041 24.3191ZM96.8193 30.2186C97.3867 32.4477 97.6836 34.9523 97.6836 37.75H103.684C103.684 34.5321 103.342 31.5223 102.634 28.7385L96.8193 30.2186ZM95.0703 40.4844V37.6816H89.0703V40.4844H95.0703ZM95.0703 37.6816C95.0703 35.3206 94.8881 33.1241 94.505 31.1064L88.6103 32.2256C88.9108 33.8082 89.0703 35.6221 89.0703 37.6816H95.0703ZM94.5062 31.1132C94.1236 29.0724 93.5343 27.2021 92.7028 25.5392L87.3363 28.2225C87.872 29.2939 88.308 30.6138 88.609 32.2189L94.5062 31.1132ZM92.7289 25.5928C91.9321 23.9167 90.9076 22.4426 89.6288 21.2233L85.4884 25.5657C86.1693 26.215 86.7853 27.0651 87.3101 28.1689L92.7289 25.5928ZM89.6288 21.2233C88.3545 20.0083 86.8801 19.0859 85.2282 18.4664L83.1214 24.0844C84.0216 24.4219 84.8031 24.9123 85.4884 25.5657L89.6288 21.2233ZM85.2449 18.4727C83.6062 17.847 81.8473 17.5576 80.0049 17.5576V23.5576C81.2158 23.5576 82.2369 23.7467 83.1047 24.078L85.2449 18.4727ZM80.0049 17.5576C77.724 17.5576 75.5744 18.0195 73.6224 19.0105L76.3385 24.3605C77.3488 23.8477 78.5488 23.5576 80.0049 23.5576V17.5576ZM73.6554 18.994C71.6942 19.9595 70.0603 21.3935 68.7505 23.2159L73.6226 26.7177C74.4091 25.6234 75.3045 24.8699 76.3055 24.3771L73.6554 18.994ZM68.7636 23.1977C67.4428 25.0068 66.5063 27.166 65.8872 29.5909L71.7007 31.0752C72.1753 29.2162 72.8339 27.7979 73.6094 26.7359L68.7636 23.1977ZM65.8891 29.5834C65.2647 32.0029 64.9736 34.7133 64.9736 37.6816H70.9736C70.9736 35.09 71.2294 32.9014 71.6988 31.0826L65.8891 29.5834ZM64.9736 37.6816V40.4844H70.9736V37.6816H64.9736ZM64.9736 40.4844C64.9736 42.8668 65.1557 45.0836 65.5377 47.1212L71.4349 46.0155C71.1334 44.4073 70.9736 42.5681 70.9736 40.4844H64.9736ZM65.546 47.1639C65.9526 49.1712 66.5505 51.0183 67.3665 52.6775L72.7506 50.0296C72.1995 48.9088 71.7493 47.5658 71.4266 45.9729L65.546 47.1639ZM67.3665 52.6775C68.1811 54.3338 69.2041 55.7959 70.4575 57.0202L74.6499 52.7279C73.9437 52.0381 73.3033 51.1532 72.7506 50.0296L67.3665 52.6775ZM70.5085 57.0688C71.7877 58.2608 73.2451 59.1764 74.8674 59.7958L77.0076 54.1905C76.1234 53.8529 75.3249 53.3557 74.5989 52.6792L70.5085 57.0688ZM74.8841 59.8022C76.5251 60.4175 78.2637 60.7109 80.0732 60.7109V54.7109C78.9206 54.7109 77.902 54.5258 76.9909 54.1842L74.8841 59.8022ZM80.0732 60.7109C82.3736 60.7109 84.5367 60.2708 86.4911 59.3087L83.841 53.9257C82.8331 54.4219 81.601 54.7109 80.0732 54.7109V60.7109ZM86.5077 59.3005C88.4828 58.3129 90.1206 56.8668 91.414 55.0273L86.5059 51.5762C85.7485 52.6534 84.857 53.4176 83.8244 53.9339L86.5077 59.3005ZM91.4265 55.0094C92.7015 53.1677 93.6059 51.0009 94.1982 48.5802L88.3701 47.1542C87.9143 49.0173 87.2692 50.4736 86.4934 51.5941L91.4265 55.0094ZM94.1982 48.5802C94.792 46.1536 95.0703 43.4453 95.0703 40.4844H89.0703C89.0703 43.0833 88.8246 45.2969 88.3701 47.1542L94.1982 48.5802ZM78.7288 12.8577L85.3938 2.56962L80.3582 -0.692664L73.6931 9.59542L78.7288 12.8577ZM82.876 3.93848H92.1729V-2.06152H82.876V3.93848ZM89.947 -1.07291L80.6501 9.21518L85.1018 13.2379L94.3987 2.94986L89.947 -1.07291ZM82.876 8.22656H76.2109V14.2266H82.876V8.22656ZM119.209 14.2344H122.209V11.2344H119.209V14.2344ZM119.209 64V67H122.209V64H119.209ZM110.63 64H107.63V67H110.63V64ZM110.63 14.2344V11.2344H107.63V14.2344H110.63ZM116.209 14.2344V64H122.209V14.2344H116.209ZM119.209 61H110.63V67H119.209V61ZM113.63 64V14.2344H107.63V64H113.63ZM110.63 17.2344H119.209V11.2344H110.63V17.2344ZM130.693 56.6855L132.815 58.8069L132.828 58.7931L132.842 58.7791L130.693 56.6855ZM137.734 56.6855L135.558 58.7503L135.585 58.779L135.613 58.8069L137.734 56.6855ZM137.734 63.1113L135.613 60.99L135.599 61.0042L135.585 61.0185L137.734 63.1113ZM132.395 59.8984C132.395 59.3807 132.537 59.0843 132.815 58.8069L128.572 54.5642C127.118 56.0186 126.395 57.8641 126.395 59.8984H132.395ZM132.842 58.7791C133.035 58.5807 133.373 58.3525 134.214 58.3525V52.3525C132.092 52.3525 130.083 53.0131 128.545 54.592L132.842 58.7791ZM134.214 58.3525C135.096 58.3525 135.406 58.5903 135.558 58.7503L139.911 54.6208C138.376 53.0035 136.34 52.3525 134.214 52.3525V58.3525ZM135.613 58.8069C135.89 59.0843 136.033 59.3807 136.033 59.8984H142.033C142.033 57.8641 141.31 56.0186 139.856 54.5642L135.613 58.8069ZM136.033 59.8984C136.033 60.4161 135.89 60.7126 135.613 60.99L139.856 65.2327C141.31 63.7783 142.033 61.9328 142.033 59.8984H136.033ZM135.585 61.0185C135.438 61.1693 135.118 61.4102 134.214 61.4102V67.4102C136.317 67.4102 138.344 66.7851 139.884 65.2042L135.585 61.0185ZM134.214 61.4102C133.35 61.4102 133.003 61.1788 132.815 60.99L128.572 65.2327C130.115 66.7756 132.115 67.4102 134.214 67.4102V61.4102ZM132.815 60.99C132.537 60.7126 132.395 60.4161 132.395 59.8984H126.395C126.395 61.9328 127.118 63.7783 128.572 65.2327L132.815 60.99Z" fill="#A0530B"/>
</svg>
