<svg width="393" height="188" viewBox="0 0 393 188" fill="none" xmlns="http://www.w3.org/2000/svg">
<g filter="url(#filter0_d_3477_11140)">
<path d="M388 17.7541C388 9.60564 381.37 3 373.192 3H17.8077C9.62964 3 3 9.60563 3 17.7541V76.8367C3.48773 76.7929 3.9816 76.7705 4.48074 76.7705C13.4766 76.7705 20.7692 84.0367 20.7692 93C20.7692 101.963 13.4766 109.23 4.48074 109.23C3.9816 109.23 3.48773 109.207 3 109.163V168.246C3 176.394 9.62964 183 17.8077 183H373.192C381.37 183 388 176.394 388 168.246V109.163C387.512 109.207 387.018 109.23 386.519 109.23C377.523 109.23 370.231 101.963 370.231 93C370.231 84.0367 377.523 76.7705 386.519 76.7705C387.018 76.7705 387.512 76.7929 388 76.8367V17.7541Z" fill="url(#paint0_linear_3477_11140)"/>
</g>
<defs>
<filter id="filter0_d_3477_11140" x="0" y="0" width="393" height="188" filterUnits="userSpaceOnUse" color-interpolation-filters="sRGB">
<feFlood flood-opacity="0" result="BackgroundImageFix"/>
<feColorMatrix in="SourceAlpha" type="matrix" values="0 0 0 0 0 0 0 0 0 0 0 0 0 0 0 0 0 0 127 0" result="hardAlpha"/>
<feOffset dx="1" dy="1"/>
<feGaussianBlur stdDeviation="2"/>
<feComposite in2="hardAlpha" operator="out"/>
<feColorMatrix type="matrix" values="0 0 0 0 0 0 0 0 0 0 0 0 0 0 0 0 0 0 0.15 0"/>
<feBlend mode="normal" in2="BackgroundImageFix" result="effect1_dropShadow_3477_11140"/>
<feBlend mode="normal" in="SourceGraphic" in2="effect1_dropShadow_3477_11140" result="shape"/>
</filter>
<linearGradient id="paint0_linear_3477_11140" x1="-25.5" y1="204.5" x2="435" y2="-37" gradientUnits="userSpaceOnUse">
<stop stop-color="#FFC48D"/>
<stop offset="0.286458" stop-color="white"/>
<stop offset="1" stop-color="#D5D5D5"/>
</linearGradient>
</defs>
</svg>
